<mxfile host="app.diagrams.net" modified="2022-08-21T22:03:58.474Z" agent="5.0 (X11; Linux x86_64) AppleWebKit/537.36 (KHTML, like Gecko) Chrome/104.0.5112.81 Safari/537.36" etag="44OagpKALP1J2TqkfZs4" version="20.2.5" type="github">
  <diagram id="kgpKYQtTHZ0yAKxKKP6v" name="Page-1">
    <mxGraphModel dx="854" dy="465" grid="1" gridSize="10" guides="1" tooltips="1" connect="1" arrows="1" fold="1" page="1" pageScale="1" pageWidth="850" pageHeight="1100" math="0" shadow="0">
      <root>
        <mxCell id="0" />
        <mxCell id="1" parent="0" />
        <mxCell id="QrOHzuXCWAyN-qy8eZex-3" value="" style="edgeStyle=orthogonalEdgeStyle;rounded=0;orthogonalLoop=1;jettySize=auto;html=1;" edge="1" parent="1" source="QrOHzuXCWAyN-qy8eZex-1" target="QrOHzuXCWAyN-qy8eZex-2">
          <mxGeometry relative="1" as="geometry" />
        </mxCell>
        <mxCell id="QrOHzuXCWAyN-qy8eZex-1" value="Pesar las 5 monedas en las 3 balanzas (analitica, digital, triple brazo)." style="rounded=0;whiteSpace=wrap;html=1;" vertex="1" parent="1">
          <mxGeometry x="150" y="25" width="120" height="60" as="geometry" />
        </mxCell>
        <mxCell id="QrOHzuXCWAyN-qy8eZex-5" value="" style="edgeStyle=orthogonalEdgeStyle;rounded=0;orthogonalLoop=1;jettySize=auto;html=1;" edge="1" parent="1" source="QrOHzuXCWAyN-qy8eZex-2" target="QrOHzuXCWAyN-qy8eZex-4">
          <mxGeometry relative="1" as="geometry" />
        </mxCell>
        <mxCell id="QrOHzuXCWAyN-qy8eZex-2" value="Tomar los datos con la respectiva incertidumbre" style="whiteSpace=wrap;html=1;rounded=0;" vertex="1" parent="1">
          <mxGeometry x="355" y="25" width="120" height="60" as="geometry" />
        </mxCell>
        <mxCell id="QrOHzuXCWAyN-qy8eZex-7" value="" style="edgeStyle=orthogonalEdgeStyle;rounded=0;orthogonalLoop=1;jettySize=auto;html=1;" edge="1" parent="1" source="QrOHzuXCWAyN-qy8eZex-4" target="QrOHzuXCWAyN-qy8eZex-6">
          <mxGeometry relative="1" as="geometry" />
        </mxCell>
        <mxCell id="QrOHzuXCWAyN-qy8eZex-4" value="Calcular&amp;nbsp; las medidas de tendencia central y de desviación de cada balanza" style="whiteSpace=wrap;html=1;rounded=0;" vertex="1" parent="1">
          <mxGeometry x="555" y="25" width="120" height="60" as="geometry" />
        </mxCell>
        <mxCell id="QrOHzuXCWAyN-qy8eZex-9" value="" style="edgeStyle=orthogonalEdgeStyle;rounded=0;orthogonalLoop=1;jettySize=auto;html=1;" edge="1" parent="1" source="QrOHzuXCWAyN-qy8eZex-6" target="QrOHzuXCWAyN-qy8eZex-8">
          <mxGeometry relative="1" as="geometry" />
        </mxCell>
        <mxCell id="QrOHzuXCWAyN-qy8eZex-6" value="Calcular el % de error de las mediciones." style="whiteSpace=wrap;html=1;rounded=0;" vertex="1" parent="1">
          <mxGeometry x="555" y="165" width="120" height="60" as="geometry" />
        </mxCell>
        <mxCell id="QrOHzuXCWAyN-qy8eZex-26" value="" style="edgeStyle=orthogonalEdgeStyle;rounded=0;orthogonalLoop=1;jettySize=auto;html=1;" edge="1" parent="1" source="QrOHzuXCWAyN-qy8eZex-8" target="QrOHzuXCWAyN-qy8eZex-24">
          <mxGeometry relative="1" as="geometry" />
        </mxCell>
        <mxCell id="QrOHzuXCWAyN-qy8eZex-8" value="Medir la masa del beaker seco y tomar el dato" style="whiteSpace=wrap;html=1;rounded=0;" vertex="1" parent="1">
          <mxGeometry x="355" y="165" width="120" height="60" as="geometry" />
        </mxCell>
        <mxCell id="QrOHzuXCWAyN-qy8eZex-21" value="" style="edgeStyle=orthogonalEdgeStyle;rounded=0;orthogonalLoop=1;jettySize=auto;html=1;exitX=1;exitY=0.5;exitDx=0;exitDy=0;" edge="1" parent="1" source="QrOHzuXCWAyN-qy8eZex-18" target="QrOHzuXCWAyN-qy8eZex-20">
          <mxGeometry relative="1" as="geometry" />
        </mxCell>
        <mxCell id="QrOHzuXCWAyN-qy8eZex-18" value="Llenar el beaker con&amp;nbsp; 5 o 10 ml de agua destilada.&amp;nbsp;" style="whiteSpace=wrap;html=1;rounded=0;" vertex="1" parent="1">
          <mxGeometry x="150" y="310" width="120" height="60" as="geometry" />
        </mxCell>
        <mxCell id="QrOHzuXCWAyN-qy8eZex-23" value="" style="edgeStyle=orthogonalEdgeStyle;rounded=0;orthogonalLoop=1;jettySize=auto;html=1;" edge="1" parent="1" source="QrOHzuXCWAyN-qy8eZex-20" target="QrOHzuXCWAyN-qy8eZex-22">
          <mxGeometry relative="1" as="geometry" />
        </mxCell>
        <mxCell id="QrOHzuXCWAyN-qy8eZex-20" value="medir la masa de el agua." style="whiteSpace=wrap;html=1;rounded=0;" vertex="1" parent="1">
          <mxGeometry x="355" y="310" width="120" height="60" as="geometry" />
        </mxCell>
        <mxCell id="QrOHzuXCWAyN-qy8eZex-22" value="Calcular la densidad." style="whiteSpace=wrap;html=1;rounded=0;" vertex="1" parent="1">
          <mxGeometry x="555" y="310" width="120" height="60" as="geometry" />
        </mxCell>
        <mxCell id="QrOHzuXCWAyN-qy8eZex-27" value="" style="edgeStyle=orthogonalEdgeStyle;rounded=0;orthogonalLoop=1;jettySize=auto;html=1;" edge="1" parent="1" source="QrOHzuXCWAyN-qy8eZex-24" target="QrOHzuXCWAyN-qy8eZex-18">
          <mxGeometry relative="1" as="geometry" />
        </mxCell>
        <mxCell id="QrOHzuXCWAyN-qy8eZex-24" value="Escoger instrumento para medir el volumen" style="whiteSpace=wrap;html=1;rounded=0;" vertex="1" parent="1">
          <mxGeometry x="150" y="165" width="120" height="60" as="geometry" />
        </mxCell>
        <mxCell id="QrOHzuXCWAyN-qy8eZex-28" value="" style="edgeStyle=orthogonalEdgeStyle;rounded=0;orthogonalLoop=1;jettySize=auto;html=1;exitX=0.5;exitY=1;exitDx=0;exitDy=0;entryX=1;entryY=0.5;entryDx=0;entryDy=0;" edge="1" parent="1" source="QrOHzuXCWAyN-qy8eZex-22" target="QrOHzuXCWAyN-qy8eZex-29">
          <mxGeometry relative="1" as="geometry">
            <mxPoint x="485" y="350" as="sourcePoint" />
            <mxPoint x="220" y="400" as="targetPoint" />
            <Array as="points">
              <mxPoint x="615" y="450" />
            </Array>
          </mxGeometry>
        </mxCell>
        <mxCell id="QrOHzuXCWAyN-qy8eZex-32" value="" style="edgeStyle=orthogonalEdgeStyle;rounded=0;orthogonalLoop=1;jettySize=auto;html=1;" edge="1" parent="1" source="QrOHzuXCWAyN-qy8eZex-29" target="QrOHzuXCWAyN-qy8eZex-30">
          <mxGeometry relative="1" as="geometry" />
        </mxCell>
        <mxCell id="QrOHzuXCWAyN-qy8eZex-33" value="" style="edgeStyle=orthogonalEdgeStyle;rounded=0;orthogonalLoop=1;jettySize=auto;html=1;" edge="1" parent="1" source="QrOHzuXCWAyN-qy8eZex-29" target="QrOHzuXCWAyN-qy8eZex-31">
          <mxGeometry relative="1" as="geometry" />
        </mxCell>
        <mxCell id="QrOHzuXCWAyN-qy8eZex-29" value="¿Se hizo ya&lt;br&gt;&amp;nbsp;3 veces?" style="rhombus;whiteSpace=wrap;html=1;" vertex="1" parent="1">
          <mxGeometry x="360" y="420" width="120" height="60" as="geometry" />
        </mxCell>
        <mxCell id="QrOHzuXCWAyN-qy8eZex-38" value="" style="edgeStyle=orthogonalEdgeStyle;rounded=0;orthogonalLoop=1;jettySize=auto;html=1;" edge="1" parent="1" source="QrOHzuXCWAyN-qy8eZex-30" target="QrOHzuXCWAyN-qy8eZex-37">
          <mxGeometry relative="1" as="geometry" />
        </mxCell>
        <mxCell id="QrOHzuXCWAyN-qy8eZex-30" value="SÍ" style="text;html=1;strokeColor=none;fillColor=none;align=center;verticalAlign=middle;whiteSpace=wrap;rounded=0;" vertex="1" parent="1">
          <mxGeometry x="390" y="544" width="60" height="30" as="geometry" />
        </mxCell>
        <mxCell id="QrOHzuXCWAyN-qy8eZex-34" value="" style="edgeStyle=orthogonalEdgeStyle;rounded=0;orthogonalLoop=1;jettySize=auto;html=1;" edge="1" parent="1" source="QrOHzuXCWAyN-qy8eZex-31" target="QrOHzuXCWAyN-qy8eZex-18">
          <mxGeometry relative="1" as="geometry" />
        </mxCell>
        <mxCell id="QrOHzuXCWAyN-qy8eZex-31" value="NO" style="text;html=1;strokeColor=none;fillColor=none;align=center;verticalAlign=middle;whiteSpace=wrap;rounded=0;" vertex="1" parent="1">
          <mxGeometry x="180" y="435" width="60" height="30" as="geometry" />
        </mxCell>
        <mxCell id="QrOHzuXCWAyN-qy8eZex-43" value="" style="edgeStyle=orthogonalEdgeStyle;rounded=0;orthogonalLoop=1;jettySize=auto;html=1;" edge="1" parent="1" source="QrOHzuXCWAyN-qy8eZex-37" target="QrOHzuXCWAyN-qy8eZex-41">
          <mxGeometry relative="1" as="geometry" />
        </mxCell>
        <mxCell id="QrOHzuXCWAyN-qy8eZex-44" value="" style="edgeStyle=orthogonalEdgeStyle;rounded=0;orthogonalLoop=1;jettySize=auto;html=1;" edge="1" parent="1" source="QrOHzuXCWAyN-qy8eZex-37" target="QrOHzuXCWAyN-qy8eZex-42">
          <mxGeometry relative="1" as="geometry" />
        </mxCell>
        <mxCell id="QrOHzuXCWAyN-qy8eZex-37" value="¿Quedan &lt;br&gt;instrumentos &lt;br&gt;para medir el Volumen &lt;br&gt;(&lt;span style=&quot;background-color: initial;&quot;&gt;pipeta volumétrica,&lt;br&gt;&amp;nbsp;&amp;nbsp;&lt;/span&gt;&lt;span style=&quot;background-color: initial;&quot;&gt;probeta,&lt;br&gt;&amp;nbsp;bureta&lt;/span&gt;)?" style="rhombus;whiteSpace=wrap;html=1;" vertex="1" parent="1">
          <mxGeometry x="150" y="489" width="160" height="141" as="geometry" />
        </mxCell>
        <mxCell id="QrOHzuXCWAyN-qy8eZex-47" value="" style="edgeStyle=orthogonalEdgeStyle;rounded=0;orthogonalLoop=1;jettySize=auto;html=1;entryX=0;entryY=0.5;entryDx=0;entryDy=0;" edge="1" parent="1" source="QrOHzuXCWAyN-qy8eZex-41" target="QrOHzuXCWAyN-qy8eZex-24">
          <mxGeometry relative="1" as="geometry">
            <mxPoint x="80" y="440" as="targetPoint" />
            <Array as="points">
              <mxPoint x="80" y="195" />
            </Array>
          </mxGeometry>
        </mxCell>
        <mxCell id="QrOHzuXCWAyN-qy8eZex-41" value="SÍ" style="text;html=1;strokeColor=none;fillColor=none;align=center;verticalAlign=middle;whiteSpace=wrap;rounded=0;" vertex="1" parent="1">
          <mxGeometry x="50" y="330" width="60" height="30" as="geometry" />
        </mxCell>
        <mxCell id="QrOHzuXCWAyN-qy8eZex-51" value="" style="edgeStyle=orthogonalEdgeStyle;rounded=0;orthogonalLoop=1;jettySize=auto;html=1;" edge="1" parent="1" source="QrOHzuXCWAyN-qy8eZex-42" target="QrOHzuXCWAyN-qy8eZex-50">
          <mxGeometry relative="1" as="geometry" />
        </mxCell>
        <mxCell id="QrOHzuXCWAyN-qy8eZex-42" value="NO" style="text;html=1;strokeColor=none;fillColor=none;align=center;verticalAlign=middle;whiteSpace=wrap;rounded=0;" vertex="1" parent="1">
          <mxGeometry x="200" y="690" width="60" height="30" as="geometry" />
        </mxCell>
        <mxCell id="QrOHzuXCWAyN-qy8eZex-49" value="" style="edgeStyle=orthogonalEdgeStyle;rounded=0;orthogonalLoop=1;jettySize=auto;html=1;" edge="1" parent="1" source="QrOHzuXCWAyN-qy8eZex-48" target="QrOHzuXCWAyN-qy8eZex-1">
          <mxGeometry relative="1" as="geometry" />
        </mxCell>
        <mxCell id="QrOHzuXCWAyN-qy8eZex-48" value="INICIO" style="ellipse;whiteSpace=wrap;html=1;aspect=fixed;" vertex="1" parent="1">
          <mxGeometry x="20" y="15" width="80" height="80" as="geometry" />
        </mxCell>
        <mxCell id="QrOHzuXCWAyN-qy8eZex-53" value="" style="edgeStyle=orthogonalEdgeStyle;rounded=0;orthogonalLoop=1;jettySize=auto;html=1;" edge="1" parent="1" source="QrOHzuXCWAyN-qy8eZex-50" target="QrOHzuXCWAyN-qy8eZex-52">
          <mxGeometry relative="1" as="geometry" />
        </mxCell>
        <mxCell id="QrOHzuXCWAyN-qy8eZex-50" value="Comparar las densidades obtenidas con la densidad teórica mediante el calculo de error.." style="whiteSpace=wrap;html=1;" vertex="1" parent="1">
          <mxGeometry x="170" y="785" width="120" height="75" as="geometry" />
        </mxCell>
        <mxCell id="QrOHzuXCWAyN-qy8eZex-55" value="" style="edgeStyle=orthogonalEdgeStyle;rounded=0;orthogonalLoop=1;jettySize=auto;html=1;" edge="1" parent="1" source="QrOHzuXCWAyN-qy8eZex-52" target="QrOHzuXCWAyN-qy8eZex-54">
          <mxGeometry relative="1" as="geometry" />
        </mxCell>
        <mxCell id="QrOHzuXCWAyN-qy8eZex-52" value="Realizar las debidas conclusiones del experimento." style="whiteSpace=wrap;html=1;" vertex="1" parent="1">
          <mxGeometry x="370" y="792.5" width="120" height="60" as="geometry" />
        </mxCell>
        <mxCell id="QrOHzuXCWAyN-qy8eZex-57" value="" style="edgeStyle=orthogonalEdgeStyle;rounded=0;orthogonalLoop=1;jettySize=auto;html=1;" edge="1" parent="1" source="QrOHzuXCWAyN-qy8eZex-54" target="QrOHzuXCWAyN-qy8eZex-56">
          <mxGeometry relative="1" as="geometry" />
        </mxCell>
        <mxCell id="QrOHzuXCWAyN-qy8eZex-54" value="Hacer el reporte de los datos obtenidos." style="whiteSpace=wrap;html=1;" vertex="1" parent="1">
          <mxGeometry x="570" y="792.5" width="120" height="60" as="geometry" />
        </mxCell>
        <mxCell id="QrOHzuXCWAyN-qy8eZex-56" value="FIN." style="ellipse;whiteSpace=wrap;html=1;" vertex="1" parent="1">
          <mxGeometry x="570" y="652.5" width="120" height="60" as="geometry" />
        </mxCell>
      </root>
    </mxGraphModel>
  </diagram>
</mxfile>
